<?xml version="1.0" encoding="iso-8859-1"?>
<!-- Generator: Adobe Illustrator 19.0.0, SVG Export Plug-In . SVG Version: 6.00 Build 0)  -->
<svg version="1.1" id="Layer_1" xmlns="http://www.w3.org/2000/svg" xmlns:xlink="http://www.w3.org/1999/xlink" x="0px" y="0px"
	 viewBox="0 0 512.561 512.561" style="enable-background:new 0 0 512.561 512.561;" xml:space="preserve">
<g transform="translate(1 1)">
	<path style="fill:#FFFFFF;" d="M33.414,306.2l187.733-142.507V152.6c0-2.56,0-5.12,0-8.533L7.814,306.2v51.2l25.6-8.533V306.2z"/>
	<path style="fill:#FD9808;" d="M477.147,306.2L289.414,163.693V152.6c0-2.56,0-5.12,0-8.533L502.747,306.2v51.2l-25.6-8.533V306.2z
		"/>
	<g>
		<path style="fill:#FFDD09;" d="M246.747,127c0-2.56,0-5.12,0-8.533L33.414,306.2v39.253l213.333-73.387V127z"/>
		<path style="fill:#FFDD09;" d="M263.814,127c0-2.56,0-5.12,0-8.533L477.147,306.2v39.253l-213.333-73.387V127z"/>
	</g>
	<g>
		<polygon style="fill:#FCC309;" points="255.28,408.6 152.88,451.267 152.88,502.467 255.28,459.8 357.68,502.467 357.68,451.267 
					"/>
		<path style="fill:#FCC309;" d="M84.614,248.173V229.4c0-9.387-7.68-17.067-17.067-17.067S50.48,220.013,50.48,229.4v44.373
			L84.614,248.173z"/>
		<path style="fill:#FCC309;" d="M169.947,183.32v-22.187c0-9.387-7.68-17.067-17.067-17.067s-17.067,7.68-17.067,17.067v47.787
			L169.947,183.32z"/>
		<path style="fill:#FCC309;" d="M425.947,248.173V229.4c0-9.387,7.68-17.067,17.067-17.067s17.067,7.68,17.067,17.067v44.373
			L425.947,248.173z"/>
		<path style="fill:#FCC309;" d="M340.614,183.32v-22.187c0-9.387,7.68-17.067,17.067-17.067s17.067,7.68,17.067,17.067v47.787
			L340.614,183.32z"/>
		<path style="fill:#FCC309;" d="M221.147,97.133v325.973L255.28,408.6l34.133,14.507V96.28c0-25.6-4.267-50.347-12.8-74.24l0,0
			c-6.827-19.627-34.987-19.627-41.813,0l0,0C225.414,46.787,221.147,71.533,221.147,97.133"/>
	</g>
	<path d="M357.68,511c-0.853,0-2.56,0-3.413-0.853l-98.987-40.96L156.294,511c-2.56,0.853-5.973,0.853-7.68-0.853
		c-2.56-1.707-4.267-4.267-4.267-7.68v-51.2c0-3.413,1.707-6.827,5.12-7.68l102.4-42.667c1.707-0.853,4.267-0.853,6.827,0
		l102.4,42.667c3.413,1.707,5.12,4.267,5.12,7.68v51.2c0,2.56-1.707,5.12-3.413,6.827C361.094,511,359.387,511,357.68,511z
		 M255.28,451.267c0.853,0,2.56,0,3.413,0.853l90.453,37.547V457.24l-93.867-39.253l-93.867,39.253v32.427l90.453-37.547
		C252.72,452.12,254.427,451.267,255.28,451.267z"/>
	<path d="M50.48,282.307c-1.707,0-2.56,0-3.413-0.853c-3.413-0.853-5.12-4.267-5.12-7.68V229.4c0-14.507,11.093-25.6,25.6-25.6
		s25.6,11.093,25.6,25.6v18.773c0,2.56-0.853,5.12-3.413,6.827L55.6,280.6C53.894,282.307,52.187,282.307,50.48,282.307z
		 M67.547,220.867c-5.12,0-8.533,3.413-8.533,8.533v27.307l17.067-12.8V229.4C76.08,225.133,72.667,220.867,67.547,220.867z
		 M84.614,248.173L84.614,248.173L84.614,248.173z"/>
	<path d="M135.814,218.307c-1.707,0-2.56,0-3.413-0.853c-3.413-1.707-5.12-5.12-5.12-7.68v-48.64c0-14.507,11.093-25.6,25.6-25.6
		s25.6,11.093,25.6,25.6v22.187c0,2.56-0.853,5.12-3.413,6.827l-34.133,25.6C139.227,217.453,137.52,218.307,135.814,218.307z
		 M152.88,152.6c-5.12,0-8.533,3.413-8.533,8.533v30.72l17.067-12.8v-17.92C161.414,156.867,158,152.6,152.88,152.6z
		 M169.947,183.32L169.947,183.32L169.947,183.32z"/>
	<path d="M460.08,282.307c-1.707,0-3.413-0.853-5.12-1.707L420.827,255c-1.707-1.707-3.413-4.267-3.413-6.827V229.4
		c0-14.507,11.093-25.6,25.6-25.6s25.6,11.093,25.6,25.6v44.373c0,3.413-1.707,5.973-5.12,7.68
		C462.64,282.307,461.787,282.307,460.08,282.307z M434.48,243.907l17.067,12.8V229.4c0-5.12-3.413-8.533-8.533-8.533
		s-8.533,3.413-8.533,8.533V243.907z"/>
	<path d="M374.747,218.307c-1.707,0-3.413-0.853-5.12-1.707L335.494,191c-1.707-1.707-3.413-4.267-3.413-6.827v-23.04
		c0-14.507,11.093-25.6,25.6-25.6s25.6,11.093,25.6,25.6v47.787c0,3.413-1.707,5.973-5.12,7.68
		C377.307,217.453,376.454,218.307,374.747,218.307z M349.147,179.053l17.067,12.8v-30.72c0-5.12-3.413-8.533-8.533-8.533
		s-8.533,3.413-8.533,8.533V179.053z"/>
	<path d="M221.147,431.64c-1.707,0-3.413-0.853-5.12-1.707c-1.707-0.853-3.413-4.267-3.413-6.827V97.133
		c0-26.453,4.267-52.053,13.653-76.8C230.534,7.533,242.48-1,255.28-1l0,0c12.8,0,24.747,7.68,29.013,20.48
		c9.387,24.747,13.653,50.347,13.653,76.8v326.827c0,2.56-1.707,5.12-3.413,6.827c-2.56,1.707-5.12,1.707-7.68,0.853l-31.573-12.8
		l-30.72,12.8C222.854,431.64,222,431.64,221.147,431.64z M255.28,16.067c-5.12,0-10.24,2.56-12.8,9.387
		c-8.533,23.04-12.8,46.933-12.8,71.68l0,0v313.173l22.187-9.387c1.707-0.853,4.267-0.853,6.827,0l22.187,9.387V96.28
		c0-23.893-4.267-47.787-12.8-70.827C265.52,18.627,260.4,16.067,255.28,16.067L255.28,16.067z M221.147,97.133L221.147,97.133
		L221.147,97.133z"/>
	<path d="M502.747,365.933c-0.853,0-1.707,0-2.56-0.853l-213.333-73.387c-3.413-0.853-5.973-4.267-5.973-7.68V152.6
		c0-1.707,0-3.413,0-5.12v-2.56c0-3.413,1.707-5.973,5.12-7.68c2.56-1.707,5.973-0.853,8.533,0.853l213.333,162.133
		c1.707,1.707,3.413,4.267,3.413,6.827v51.2c0,2.56-1.707,5.12-3.413,6.827C506.16,365.933,504.454,365.933,502.747,365.933z
		 M297.947,278.04l196.267,67.413v-34.987l-196.267-148.48V278.04z M297.947,284.013L297.947,284.013L297.947,284.013z"/>
	<path d="M7.814,365.933c-1.707,0-3.413-0.853-5.12-1.707s-3.413-3.413-3.413-6.827v-51.2c0-2.56,0.853-5.12,3.413-6.827
		L216.027,137.24c2.56-1.707,5.973-2.56,8.533-0.853c2.56,1.707,5.12,4.267,5.12,7.68v2.56c0,1.707,0,3.413,0,5.12l0,0V283.16
		c0,3.413-2.56,6.827-5.973,7.68L10.374,365.933C9.52,365.933,8.667,365.933,7.814,365.933z M16.347,310.467v34.987l196.267-67.413
		V161.987L16.347,310.467z"/>
</g>
<g>
</g>
<g>
</g>
<g>
</g>
<g>
</g>
<g>
</g>
<g>
</g>
<g>
</g>
<g>
</g>
<g>
</g>
<g>
</g>
<g>
</g>
<g>
</g>
<g>
</g>
<g>
</g>
<g>
</g>
</svg>
