<?xml version="1.0" encoding="iso-8859-1"?>
<!-- Generator: Adobe Illustrator 19.0.0, SVG Export Plug-In . SVG Version: 6.00 Build 0)  -->
<svg version="1.1" id="Layer_1" xmlns="http://www.w3.org/2000/svg" xmlns:xlink="http://www.w3.org/1999/xlink" x="0px" y="0px"
	 viewBox="0 0 512 512" style="enable-background:new 0 0 512 512;" xml:space="preserve">
<g transform="translate(1 1)">
	<path style="fill:#035AA6;" d="M372.333,501.613l-29.867-6.827l-24.747-41.813c-11.093-18.773-1.707-42.667,19.627-47.787
		l86.187-23.04v-34.133L320.28,252.44c-16.213-15.36-25.6-35.84-25.6-58.027c0-12.8-3.413-24.747-8.533-35.84v-6.827
		c0-8.533,0-17.067-0.853-25.6l10.24,10.24c15.36,15.36,23.893,35.84,23.893,57.173c0,22.187,9.387,43.52,25.6,58.027l102.4,95.573
		v34.133l-86.187,23.04c-20.48,5.973-30.72,29.867-19.627,47.787L372.333,501.613z"/>
	<path style="fill:#22B2DA;" d="M221.293,442.733l25.6-290.133c0-8.533,0-17.067,0.853-25.6l-10.24,10.24
		c-16.213,15.36-24.747,36.693-24.747,58.027l0,0c0,22.187-9.387,43.52-25.6,58.027l-102.4,95.573V383l86.187,23.04
		c20.48,5.973,30.72,29.867,19.627,47.787l-29.013,48.64l51.2-17.067L221.293,442.733z"/>
	<path style="fill:#FFFFFF;" d="M135.96,502.467l29.867-6.827l24.747-41.813c11.093-18.773,1.707-42.667-19.627-47.787L84.76,383
		v-34.133l102.4-95.573c16.213-15.36,25.6-35.84,25.6-58.027c0-12.8,3.413-24.747,8.533-35.84V152.6c0-8.533,0-17.067,0.853-25.6
		l-10.24,10.24c-16.213,15.36-24.747,36.693-24.747,58.027c0,22.187-9.387,43.52-25.6,58.027l-102.4,95.573V383l86.187,23.04
		c20.48,5.973,30.72,29.867,19.627,47.787L135.96,502.467z"/>
	<path style="fill:#22B2DA;" d="M289.56,442.733L264.813,152.6c0-8.533,0-17.067-0.853-25.6l10.24,10.24
		c15.36,15.36,23.893,35.84,23.893,57.173l0,0c0,22.187,9.387,43.52,25.6,58.027l102.4,95.573v34.133l-86.187,23.04
		c-20.48,5.973-30.72,29.867-19.627,47.787l29.013,48.64l-51.2-16.213L289.56,442.733z"/>
	<g>
		<path style="fill:#40BAD5;" d="M135.96,403.48l-34.133-9.387v48.64c0,4.267,3.413,8.533,8.533,8.533h17.067
			c4.267,0,8.533-3.413,8.533-8.533V403.48z"/>
		<path style="fill:#40BAD5;" d="M135.96,277.187V247.32c0-8.533-5.973-16.213-14.507-17.92
			c-10.24-0.853-19.627,6.827-19.627,17.067v62.293L135.96,277.187z"/>
		<path style="fill:#40BAD5;" d="M409.027,309.613v-61.44c0-8.533-5.973-16.213-14.507-17.92
			c-11.093-1.707-19.627,6.827-19.627,17.067v30.72L409.027,309.613z"/>
		<path style="fill:#40BAD5;" d="M374.893,403.48v39.253c0,4.267,3.413,8.533,8.533,8.533h17.067c4.267,0,8.533-3.413,8.533-8.533
			v-48.64L374.893,403.48z"/>
		<path style="fill:#40BAD5;" d="M289.56,442.733l-0.853,1.707c-17.067,21.333-48.64,21.333-65.707,0l-1.707-1.707V152.6
			c-0.853-44.373,6.827-89.6,21.333-132.267l1.707-4.267c3.413-11.093,19.627-11.093,23.04,0l1.707,4.267
			C282.733,63,290.413,108.227,289.56,152.6L289.56,442.733L289.56,442.733z"/>
		<polygon style="fill:#40BAD5;" points="161.56,314.733 187.16,340.333 161.56,365.933 135.96,340.333 		"/>
		<polygon style="fill:#40BAD5;" points="349.293,314.733 374.893,340.333 349.293,365.933 323.693,340.333 		"/>
	</g>
	<path d="M255.427,469.187c-15.36,0-29.867-6.827-39.253-18.773l-0.853-1.707c-1.707-1.707-2.56-3.413-2.56-5.973V152.6
		c-0.853-41.813,5.973-88.747,21.333-134.827l1.707-4.267C238.36,4.973,246.04-1,255.427-1l0,0c9.387,0,17.067,5.973,19.627,14.507
		l1.707,4.267c15.36,46.08,23.04,92.16,21.333,134.827v290.133c0,1.707-0.853,4.267-1.707,5.12l-0.853,1.707
		C285.293,462.36,270.787,469.187,255.427,469.187z M229.827,440.173c6.827,7.68,15.36,11.947,25.6,11.947
		c10.24,0,19.627-4.267,25.6-11.947V152.6c0.853-40.96-5.973-85.333-20.48-128.853l-1.707-4.267c-0.853-2.56-2.56-2.56-3.413-2.56
		l0,0c-0.853,0-2.56,0-3.413,2.56l-1.707,4.267c-14.507,43.52-21.333,88.747-20.48,128.853V440.173z M289.56,442.733L289.56,442.733
		L289.56,442.733z"/>
	<path d="M374.893,511c-0.853,0-0.853,0-1.707,0l-76.8-17.067c-3.413-0.853-5.973-3.413-6.827-6.827l-8.533-42.667
		c0-0.853,0-0.853,0-1.707V152.6c0-7.68,0-15.36-0.853-24.747c0-3.413,1.707-6.827,5.12-8.533s6.827-0.853,9.387,1.707l10.24,10.24
		c17.067,16.213,26.453,39.253,26.453,63.147c0,19.627,8.533,38.4,23.04,52.053l102.4,95.573c1.707,1.707,2.56,4.267,2.56,5.973
		v34.133c0,4.267-2.56,6.827-5.973,8.533l-86.187,23.04c-7.68,1.707-12.8,6.827-16.213,14.507c-3.413,7.68-2.56,14.507,1.707,21.333
		l29.013,48.64c1.707,2.56,1.707,6.827,0,9.387C380.013,510.147,377.453,511,374.893,511z M305.773,478.573l52.053,11.947
		l-18.773-31.573c-6.827-11.093-7.68-24.747-2.56-36.693c5.12-11.947,14.507-20.48,27.307-23.893l80.213-21.333v-23.893
		L343.32,259.267c-17.92-17.067-28.16-40.107-28.16-64.853c0-17.067-5.973-33.28-17.067-46.08c0,1.707,0,2.56,0,4.267v289.28
		L305.773,478.573z"/>
	<path d="M135.96,511c-2.56,0-5.12-1.707-6.827-3.413c-1.707-2.56-2.56-6.827,0-9.387l29.013-48.64
		c4.267-6.827,4.267-14.507,1.707-21.333c-2.56-6.827-8.533-11.947-16.213-14.507L56.6,391.533
		c-3.413-0.853-5.973-4.267-5.973-8.533v-34.133c0-2.56,0.853-4.267,2.56-5.973l102.4-95.573
		c14.507-13.653,23.04-32.427,23.04-52.053c0-23.893,9.387-46.933,26.453-63.147l10.24-10.24c2.56-2.56,5.973-3.413,9.387-1.707
		s5.12,5.12,5.12,8.533c0,8.533,0,16.213,0,23.893v290.133c0,0.853,0,0.853,0,1.707l-8.533,42.667
		c-0.853,3.413-3.413,5.973-6.827,6.827L137.667,511C136.813,511,136.813,511,135.96,511z M67.693,377.027l80.213,21.333
		c12.8,3.413,22.187,11.947,27.307,23.893s4.267,25.6-2.56,36.693L153.88,490.52l52.053-11.947l7.68-36.693V152.6
		c0-1.707,0-2.56,0-4.267c-11.093,12.8-17.067,29.013-17.067,46.08c0,24.747-10.24,47.787-28.16,64.853L67.693,353.133V377.027z
		 M221.293,442.733L221.293,442.733L221.293,442.733z"/>
	<path d="M127.427,461.507H110.36c-9.387,0-17.067-7.68-17.067-17.067V395.8c0-2.56,0.853-5.12,3.413-6.827
		c1.707-1.707,5.12-2.56,7.68-1.707l34.133,9.387c3.413,0.853,5.973,4.267,5.973,8.533v39.253
		C144.493,453.827,136.813,461.507,127.427,461.507z M110.36,407.747v36.693h17.067v-32.427L110.36,407.747z"/>
	<path d="M101.827,318.147c-0.853,0-2.56,0-3.413-0.853c-3.413-1.707-5.12-4.267-5.12-7.68v-63.147
		c0-7.68,3.413-14.507,9.387-19.627c5.973-5.12,13.653-6.827,20.48-5.973c11.947,1.707,21.333,13.653,21.333,26.453v29.867
		c0,2.56-0.853,4.267-2.56,5.973L107.8,314.733C106.093,317.293,103.533,318.147,101.827,318.147z M118.893,237.933
		c-1.707,0-4.267,0.853-5.12,1.707c-2.56,2.56-3.413,4.267-3.413,6.827v42.667l17.067-16.213v-26.453
		c0-4.267-3.413-8.533-6.827-9.387C119.747,237.933,119.747,237.933,118.893,237.933z M135.96,277.187L135.96,277.187
		L135.96,277.187z"/>
	<path d="M409.027,318.147c-1.707,0-4.267-0.853-5.973-2.56l-34.133-31.573c-1.707-1.707-2.56-4.267-2.56-5.973v-31.573
		c0-7.68,3.413-14.507,9.387-19.627c5.973-5.12,13.653-6.827,20.48-5.973c11.947,1.707,21.333,13.653,21.333,26.453v61.44
		c0,3.413-1.707,6.827-5.12,7.68C411.587,317.293,409.88,318.147,409.027,318.147z M383.427,273.773l17.067,16.213v-41.813
		c0-4.267-3.413-8.533-6.827-9.387c-2.56-0.853-5.12,0-6.827,1.707c-2.56,1.707-3.413,3.413-3.413,5.973V273.773z"/>
	<path d="M400.493,459.8h-17.067c-9.387,0-17.067-7.68-17.067-17.067V403.48c0-4.267,2.56-6.827,5.973-8.533l34.133-9.387
		c2.56-0.853,5.12,0,7.68,1.707s3.413,4.267,3.413,6.827v48.64C417.56,452.12,409.88,459.8,400.493,459.8z M383.427,410.307v32.427
		h17.067v-37.547L383.427,410.307z"/>
	<path d="M161.56,374.467c-2.56,0-4.267-0.853-5.973-2.56l-25.6-25.6c-3.413-3.413-3.413-8.533,0-11.947l25.6-25.6
		c3.413-3.413,8.533-3.413,11.947,0l25.6,25.6c3.413,3.413,3.413,8.533,0,11.947l-25.6,25.6
		C165.827,373.613,164.12,374.467,161.56,374.467z M147.907,340.333l13.653,13.653l13.653-13.653L161.56,326.68L147.907,340.333z"/>
	<path d="M349.293,374.467c-2.56,0-4.267-0.853-5.973-2.56l-25.6-25.6c-3.413-3.413-3.413-8.533,0-11.947l25.6-25.6
		c3.413-3.413,8.533-3.413,11.947,0l25.6,25.6c3.413,3.413,3.413,8.533,0,11.947l-25.6,25.6
		C353.56,373.613,351.853,374.467,349.293,374.467z M335.64,340.333l13.653,13.653l13.653-13.653l-13.653-13.653L335.64,340.333z"/>
</g>
<g>
</g>
<g>
</g>
<g>
</g>
<g>
</g>
<g>
</g>
<g>
</g>
<g>
</g>
<g>
</g>
<g>
</g>
<g>
</g>
<g>
</g>
<g>
</g>
<g>
</g>
<g>
</g>
<g>
</g>
</svg>
