<?xml version="1.0" encoding="UTF-8" standalone="no" ?>
<!DOCTYPE svg PUBLIC "-//W3C//DTD SVG 1.1//EN" "http://www.w3.org/Graphics/SVG/1.1/DTD/svg11.dtd">
<svg xmlns="http://www.w3.org/2000/svg" xmlns:xlink="http://www.w3.org/1999/xlink" version="1.1" width="500" height="500" viewBox="0 0 500 500" xml:space="preserve">
<desc>Created with Fabric.js 4.6.0</desc>
<defs>
</defs>
<g transform="matrix(1 0 0 1 221.24 232.28)" id="ljtwq23UB9ZjyPOq9nH3Y"  >
<filter id="SVGID_487" y="-21%" height="142%" x="-22%" width="144%" >
	<feGaussianBlur in="SourceAlpha" stdDeviation="1.5"></feGaussianBlur>
	<feOffset dx="4" dy="3" result="oBlur" ></feOffset>
	<feFlood flood-color="rgb(0,0,0)" flood-opacity="0.21"/>
	<feComposite in2="oBlur" operator="in" />
	<feMerge>
		<feMergeNode></feMergeNode>
		<feMergeNode in="SourceGraphic"></feMergeNode>
	</feMerge>
</filter>
<path style="stroke: rgb(157,149,142); stroke-width: 4; stroke-dasharray: none; stroke-linecap: butt; stroke-dashoffset: 0; stroke-linejoin: miter; stroke-miterlimit: 4; fill: rgb(188,188,185); fill-rule: nonzero; opacity: 1;filter: url(#SVGID_487);" vector-effect="non-scaling-stroke"  transform=" translate(0, 0)" d="M -162.53982 132.71481 C -165.72281999999998 133.90102 -168.28234 136.33719 -169.62419 139.45777 C -170.96604 142.57835 -170.97351 146.11190000000002 -169.64487 149.23812 L -146.94064 202.65984 L -146.94064 202.65984 C -144.42791 208.57215 -137.72458 211.4804 -131.69046 209.27616 L -11.843289999999996 165.49637 L -11.843289999999996 165.49637 C -10.235709999999996 164.90913 -8.436009999999996 165.24182000000002 -7.144609999999996 166.36496000000002 C -5.853209999999995 167.48810000000003 -5.274129999999996 169.22427000000002 -5.632729999999996 170.89776000000003 L -5.632729999999996 170.89776000000003 L -5.632729999999996 170.89776000000003 C -6.1601899999999965 173.35926000000003 -5.664299999999996 175.92943000000002 -4.258929999999996 178.01800000000003 C -2.853559999999996 180.10657000000003 -0.6594899999999959 181.53406000000004 1.8194000000000043 181.97264000000004 L 144.18009 207.15953000000005 L 144.18009 207.15953000000005 C 151.227 208.40629000000004 157.9608 203.73703000000003 159.2639 196.70032000000003 L 170.41694 136.47392000000002 L 170.41694 136.47392000000002 C 171.70331000000002 129.52752 167.19553000000002 122.82869000000002 160.27615 121.40411000000002 L 155.4823 120.41714000000002 L 155.4823 120.41714000000002 C 152.19875000000002 119.74111000000002 149.76182 116.96929000000002 149.51186 113.62620000000001 C 149.26190000000003 110.28311000000001 151.25953 107.17971000000001 154.40604000000002 106.02291000000001 L 162.53849000000002 103.03304000000001 L 162.53849000000002 103.03304000000001 C 168.18415000000002 100.95743000000002 171.10359000000003 94.72096000000002 169.08151000000004 89.05590000000001 L 147.53792000000004 28.699390000000008 L 147.53792000000004 28.699390000000008 C 145.35619000000005 22.587070000000008 138.70530000000005 19.322140000000008 132.53515000000004 21.334530000000008 L 116.52866000000004 26.55504000000001 L 116.52866000000004 26.55504000000001 C 113.72419000000005 27.46972000000001 110.64517000000005 26.83542000000001 108.43056000000004 24.88678000000001 C 106.21595000000005 22.938140000000008 105.19501000000004 19.96486000000001 105.74538000000004 17.066800000000008 L 141.02191000000005 -168.68618 L 141.02191000000005 -168.68618 C 142.45660000000004 -176.2407 137.50037000000006 -183.52938 129.94744000000006 -184.97242 L 0.056320000000056325 -209.78902 L 0.056320000000056325 -209.78902 C -6.652629999999943 -211.07081 -13.135099999999944 -206.68658 -14.443169999999943 -199.9827 L -70.89292999999994 89.32234000000003 L -70.89292999999994 89.32234000000003 C -72.10059999999993 95.51163000000003 -76.43954999999994 100.62776000000002 -82.34855999999994 102.82988000000003 z" stroke-linecap="round" />
</g>
</svg>